# xmcd
#
# Track frame offsets:
#	150
#	19603
#	35861
#	52041
#	71050
#	83421
#	96388
#	112143
#	114834
#	131625
#	146249
#	163731
#	176334
#
# Disc length: 2443 seconds
# Revision: 0
# Processed by: cddbd v1.5.2PL0 Copyright (c) Steve Scherf et al.
# Submitted via: dBpowerAMP V12.0
#
DISCID=b809890d
DTITLE=Various Artist - Merry -- A Nashville Tribute To Christmas
DYEAR=2016
DGENRE=Country
TTITLE0=Nashville Tribute Band, The - Anyone I Know (Knows I'm Coming Home)
TTITLE1=Nashville Tribute Band, The - Drummer Boy
TTITLE2=Nashville Tribute Band, The - Feliz Navidad
TTITLE3=Nashville Tribute Band, The - Do You Hear What I Hear
TTITLE4=Nashville Tribute Band, The - Santa Claus is Comin'
TTITLE5=Nashville Tribute Band, The - Have Yourself A Merry Little Christmas
TTITLE6=Nashville Tribute Band, The - Mary Holds Him
TTITLE7=Nashville Tribute Band, The - Longfellow
TTITLE8=Nashville Tribute Band, The Featuring The Nashville Flute Choir - I Heard the Bells On Christmas Day
TTITLE9=Nashville Tribute Band, The - Pray for Me (Pray for You)
TTITLE10=Nashville Tribute Band, The Featuring Abby Anderson - Red, White and Blue Christmas
TTITLE11=Nashville Tribute Band, The - Sleigh Ride
TTITLE12=Nashville Tribute Band, The - Luke II
EXTD=
EXTT0=
EXTT1=
EXTT2=
EXTT3=
EXTT4=
EXTT5=
EXTT6=
EXTT7=
EXTT8=
EXTT9=
EXTT10=
EXTT11=
EXTT12=
PLAYORDER=
